<?xml version="1.0" standalone="no"?><!DOCTYPE svg PUBLIC "-//W3C//DTD SVG 1.1//EN" "http://www.w3.org/Graphics/SVG/1.1/DTD/svg11.dtd"><svg t="1530341361837" class="icon" style="" viewBox="0 0 1024 1024" version="1.1" xmlns="http://www.w3.org/2000/svg" p-id="6811" xmlns:xlink="http://www.w3.org/1999/xlink" width="128" height="128"><defs><style type="text/css"></style></defs><path d="M510.865297 937.181405c-240.916757 0-436.224-195.307243-436.224-436.196324C74.641297 260.068324 269.948541 64.761081 510.892973 64.761081S947.061622 260.068324 947.061622 500.985081c0 240.889081-195.279568 436.196324-436.196325 436.196324m0-933.223783C236.35027 3.957622 13.837838 226.470054 13.837838 500.985081 13.837838 775.472432 236.35027 997.984865 510.865297 997.984865c274.487351 0 497.027459-222.512432 497.02746-496.999784 0-274.515027-222.512432-497.055135-497.055135-497.055135m12.841513 376.942703H487.091892a24.908108 24.908108 0 0 0-24.935784 24.908108v291.148108a24.908108 24.908108 0 0 0 24.908108 24.908108h36.587243a24.908108 24.908108 0 0 0 24.908109-24.908108v-291.148108a24.908108 24.908108 0 0 0-24.908109-24.908108m1.134703-104.00519h-36.559567a24.908108 24.908108 0 0 0-24.908109 24.935784v30.941406a24.908108 24.908108 0 0 0 24.908109 24.908108h36.559567a24.908108 24.908108 0 0 0 24.908108-24.908108v-30.941406a24.908108 24.908108 0 0 0-24.908108-24.908108" p-id="6812" fill="#bfbfbf"></path></svg>