<?xml version="1.0" standalone="no"?><!DOCTYPE svg PUBLIC "-//W3C//DTD SVG 1.1//EN" "http://www.w3.org/Graphics/SVG/1.1/DTD/svg11.dtd"><svg t="1527932678832" class="icon" style="" viewBox="0 0 1024 1024" version="1.1" xmlns="http://www.w3.org/2000/svg" p-id="2745" xmlns:xlink="http://www.w3.org/1999/xlink" width="32" height="32"><defs><style type="text/css"></style></defs><path d="M512 960C264.981333 960 64 759.04 64 512S264.981333 64 512 64c246.997333 0 448 200.981333 448 448 0 247.04-201.002667 448-448 448z m0-853.333333C288.490667 106.666667 106.666667 288.490667 106.666667 512s181.824 405.333333 405.333333 405.333333 405.333333-181.824 405.333333-405.333333S735.509333 106.666667 512 106.666667z" p-id="2746" fill="#8a8a8a"></path><path d="M512 697.621333m-32 0a32 32 0 1 0 64 0 32 32 0 1 0-64 0Z" p-id="2747" fill="#8a8a8a"></path><path d="M512 599.786667a21.333333 21.333333 0 0 1-21.333333-21.333334V266.453333a21.333333 21.333333 0 1 1 42.666666 0v312a21.333333 21.333333 0 0 1-21.333333 21.333334z" p-id="2748" fill="#8a8a8a"></path></svg>