<?xml version="1.0" standalone="no"?><!DOCTYPE svg PUBLIC "-//W3C//DTD SVG 1.1//EN" "http://www.w3.org/Graphics/SVG/1.1/DTD/svg11.dtd"><svg t="1530236509965" class="icon" style="" viewBox="0 0 1024 1024" version="1.1" xmlns="http://www.w3.org/2000/svg" p-id="4541" xmlns:xlink="http://www.w3.org/1999/xlink" width="128" height="128"><defs><style type="text/css"></style></defs><path d="M610.2 642.7c-9.9 0-19.5-3.9-26.6-11L405.5 453.6c-9.7-9.7-13.4-23.9-9.6-37.1 3.8-13.2 14.4-23.2 27.8-26.3l231.2-53.1c12.7-2.9 25.9 0.9 35.1 10.1 9.2 9.2 13 22.4 10.1 35.1L647 613.5c-3.1 13.4-13.2 24-26.3 27.8-3.5 0.9-7 1.4-10.5 1.4zM506.9 448.4l81.8 81.8L613.1 424l-106.2 24.4z" fill="#4585F5" p-id="4542"></path><path d="M361.3 713.5c-9.9 0-19.5-3.9-26.6-11-9.7-9.7-13.3-23.8-9.6-37l70.8-248.9c3.7-12.8 13.8-22.8 26.8-26.2 12.9-3.4 26.6 0.4 36.1 9.8l178.1 178.1c9.4 9.4 13.2 23.2 9.8 36.1s-13.3 23.1-26.2 26.8L371.6 712c-3.4 1.1-6.9 1.5-10.3 1.5z m89.5-214.6L416 621.1l122.2-34.8-87.4-87.4z" fill="#29CCB6" p-id="4543"></path><path d="M512 992C247.3 992 32 776.7 32 512S247.3 32 512 32s480 215.3 480 480-215.3 480-480 480z m0-859.5c-209.3 0-379.5 170.2-379.5 379.5S302.7 891.5 512 891.5 891.5 721.3 891.5 512 721.3 132.5 512 132.5z" fill="#4585F5" p-id="4544"></path></svg>