<?xml version="1.0" standalone="no"?><!DOCTYPE svg PUBLIC "-//W3C//DTD SVG 1.1//EN" "http://www.w3.org/Graphics/SVG/1.1/DTD/svg11.dtd"><svg t="1527913560635" class="icon" style="" viewBox="0 0 1024 1024" version="1.1" xmlns="http://www.w3.org/2000/svg" p-id="1891" xmlns:xlink="http://www.w3.org/1999/xlink" width="32" height="32"><defs><style type="text/css"></style></defs><path d="M941.951309 889.945865c-21.694091-96.504938-76.210729-184.129624-153.506163-246.732427-38.573527-31.241538-81.70793-55.587016-128.203894-72.362075-9.03784-3.260254-18.161638-6.218632-27.363208-8.874111 19.108197-10.949376 36.888142-24.502044 52.880371-40.495296 47.305399-47.305399 73.357751-110.199845 73.357751-177.099511 0-66.898643-26.052353-129.794112-73.357751-177.098487-47.304376-47.305399-110.198821-73.356728-177.098487-73.356728-66.898643 0-129.794112 26.051329-177.098487 73.356728-47.305399 47.305399-73.356728 110.199845-73.356728 177.098487s26.051329 129.794112 73.356728 177.099511c16.239869 16.239869 34.317597 29.974685 53.764508 41.011043-8.755408 2.565429-17.444301 5.393847-26.052353 8.509814-46.615691 16.871249-89.837074 41.351803-128.463814 72.762187-77.435627 62.969147-131.850957 151.025669-153.219637 247.949138-3.042289 13.797237 5.676279 27.448142 19.47454 30.491455 1.856277 0.408299 3.707438 0.604774 5.531993 0.604774 11.743462 0 22.325471-8.137331 24.958438-20.079314 18.892279-85.687568 67.026556-163.559123 135.535883-219.268936 34.166147-27.78174 72.384587-49.432853 113.595174-64.34754 42.642193-15.432481 87.484494-23.258727 133.280516-23.258727 45.660946 0 90.378403 7.780197 132.911102 23.124673 41.104163 14.829753 79.244832 36.360116 113.364931 63.9945 68.385507 55.386448 116.608811 132.87631 135.787616 218.194464 3.098571 13.785981 16.793478 22.448268 30.571273 19.348674C936.38657 917.418566 945.04988 903.731846 941.951309 889.945865zM309.370023 344.382445c0-109.888759 89.401146-199.289905 199.289905-199.289905 109.889783 0 199.290929 89.401146 199.290929 199.289905 0 109.889783-89.401146 199.290929-199.290929 199.290929C398.771169 543.673373 309.370023 454.272227 309.370023 344.382445z" p-id="1892" fill="#8a8a8a"></path></svg>