<?xml version="1.0" standalone="no"?><!DOCTYPE svg PUBLIC "-//W3C//DTD SVG 1.1//EN" "http://www.w3.org/Graphics/SVG/1.1/DTD/svg11.dtd"><svg t="1530238673962" class="icon" style="" viewBox="0 0 1024 1024" version="1.1" xmlns="http://www.w3.org/2000/svg" p-id="960" xmlns:xlink="http://www.w3.org/1999/xlink" width="32" height="32"><defs><style type="text/css"></style></defs><path d="M115.032325 70.15541h729.410569c61.719356 0 112.217011 50.497655 112.217011 112.21701v729.410569c0 61.719356-50.497655 112.217011-112.217011 112.217011H115.032325c-61.719356 0-112.217011-50.497655-112.217011-112.217011V182.37242c0-61.719356 50.497655-112.217011 112.217011-112.21701z" fill="#2F77F1" p-id="961"></path><path d="M486.751173 533.050579l51.900367-130.452275 78.551907 79.95462-130.452274 50.497655z m519.003674-519.003674c21.040689 22.443402 18.235264 60.316643-7.013564 85.56547L617.203447 482.552924l-79.95462-79.95462L920.189376 21.060468c25.248827-25.248827 63.122068-28.054253 85.565471-7.013563z" fill="#AFFCFE" p-id="962"></path></svg>